<?xml version="1.0" encoding="utf-8"?>
<!-- Generator: Adobe Illustrator 25.4.1, SVG Export Plug-In . SVG Version: 6.00 Build 0)  -->
<svg version="1.0" id="Layer_1" xmlns="http://www.w3.org/2000/svg" xmlns:xlink="http://www.w3.org/1999/xlink" x="0px" y="0px"
	 viewBox="0 0 200 200" style="enable-background:new 0 0 200 200;" xml:space="preserve">
<style type="text/css">
	.st0{fill:#FFFFFF;}
</style>
<path class="st0" d="M107.91,0H0v200h200V92.09C200,41.23,158.77,0,107.91,0z M140.8,156.44c0,1.59-1.11,3.18-2.86,3.18h-8.89
	c-1.59,0-2.7-1.43-2.7-3.18V86.27c0-27.63-9.53-33.18-29.21-33.18c-6.83,0-19.53,0.64-23.5,0.95v102.4c0,1.59-1.11,3.18-2.86,3.18
	h-8.73c-1.75,0-2.86-1.43-2.86-3.18V47.84c0-3.97,1.27-5.08,4.45-5.56c8.41-1.27,25.72-1.91,33.82-1.91
	c28.58,0,43.34,10.8,43.34,45.88V156.44z"/>
</svg>
